<svg xmlns="http://www.w3.org/2000/svg" viewBox="0 0 3200 1800" role="img" aria-label="The US Capitol drawn in fine vertical navy lines with red accent lines">
  <line x1="1216" y1="1050.4" x2="1216" y2="1196" stroke="#16294a" stroke-width="1.7" opacity="0.92"/>
  <line x1="1224" y1="1028" x2="1224" y2="1196" stroke="#16294a" stroke-width="1.7" opacity="0.92"/>
  <line x1="1232" y1="1028" x2="1232" y2="1196" stroke="#16294a" stroke-width="1.7" opacity="0.92"/>
  <line x1="1240" y1="1028" x2="1240" y2="1196" stroke="#16294a" stroke-width="1.7" opacity="0.92"/>
  <line x1="1248" y1="1028" x2="1248" y2="1196" stroke="#16294a" stroke-width="1.7" opacity="0.92"/>
  <line x1="1256" y1="1028" x2="1256" y2="1196" stroke="#6e1423" stroke-width="3.2" opacity="1"/>
  <line x1="1264" y1="1028" x2="1264" y2="1196" stroke="#16294a" stroke-width="1.7" opacity="0.92"/>
  <line x1="1272" y1="1028" x2="1272" y2="1196" stroke="#16294a" stroke-width="1.7" opacity="0.92"/>
  <line x1="1280" y1="1028" x2="1280" y2="1196" stroke="#16294a" stroke-width="1.7" opacity="0.92"/>
  <line x1="1288" y1="1028" x2="1288" y2="1196" stroke="#16294a" stroke-width="1.7" opacity="0.92"/>
  <line x1="1296" y1="1028" x2="1296" y2="1196" stroke="#16294a" stroke-width="1.7" opacity="0.92"/>
  <line x1="1304" y1="1028" x2="1304" y2="1196" stroke="#16294a" stroke-width="1.7" opacity="0.92"/>
  <line x1="1312" y1="1028" x2="1312" y2="1196" stroke="#16294a" stroke-width="1.7" opacity="0.92"/>
  <line x1="1320" y1="1028" x2="1320" y2="1196" stroke="#16294a" stroke-width="1.7" opacity="0.92"/>
  <line x1="1328" y1="1050.4" x2="1328" y2="1196" stroke="#16294a" stroke-width="1.7" opacity="0.92"/>
  <line x1="1336" y1="1050.4" x2="1336" y2="1196" stroke="#16294a" stroke-width="1.7" opacity="0.92"/>
  <line x1="1344" y1="1050.4" x2="1344" y2="1196" stroke="#16294a" stroke-width="1.7" opacity="0.92"/>
  <line x1="1352" y1="1050.4" x2="1352" y2="1196" stroke="#16294a" stroke-width="1.7" opacity="0.92"/>
  <line x1="1360" y1="1050.4" x2="1360" y2="1196" stroke="#6e1423" stroke-width="3.2" opacity="1"/>
  <line x1="1368" y1="1050.4" x2="1368" y2="1196" stroke="#16294a" stroke-width="1.7" opacity="0.92"/>
  <line x1="1376" y1="1050.4" x2="1376" y2="1196" stroke="#16294a" stroke-width="1.7" opacity="0.92"/>
  <line x1="1384" y1="1050.4" x2="1384" y2="1196" stroke="#16294a" stroke-width="1.7" opacity="0.92"/>
  <line x1="1392" y1="1050.4" x2="1392" y2="1196" stroke="#16294a" stroke-width="1.7" opacity="0.92"/>
  <line x1="1400" y1="1005.6" x2="1400" y2="1196" stroke="#16294a" stroke-width="1.7" opacity="0.92"/>
  <line x1="1408" y1="1005.6" x2="1408" y2="1196" stroke="#16294a" stroke-width="1.7" opacity="0.92"/>
  <line x1="1416" y1="1005.6" x2="1416" y2="1196" stroke="#16294a" stroke-width="1.7" opacity="0.92"/>
  <line x1="1424" y1="1005.6" x2="1424" y2="1196" stroke="#16294a" stroke-width="1.7" opacity="0.92"/>
  <line x1="1432" y1="1005.6" x2="1432" y2="1196" stroke="#16294a" stroke-width="1.7" opacity="0.92"/>
  <line x1="1440" y1="1005.6" x2="1440" y2="1196" stroke="#16294a" stroke-width="1.7" opacity="0.92"/>
  <line x1="1448" y1="1005.6" x2="1448" y2="1196" stroke="#16294a" stroke-width="1.7" opacity="0.92"/>
  <line x1="1456" y1="1005.6" x2="1456" y2="1196" stroke="#16294a" stroke-width="1.7" opacity="0.92"/>
  <line x1="1464" y1="1005.6" x2="1464" y2="1196" stroke="#6e1423" stroke-width="3.2" opacity="1"/>
  <line x1="1472" y1="972" x2="1472" y2="1196" stroke="#16294a" stroke-width="1.7" opacity="0.92"/>
  <line x1="1480" y1="972" x2="1480" y2="1196" stroke="#16294a" stroke-width="1.7" opacity="0.92"/>
  <line x1="1488" y1="938.4" x2="1488" y2="1196" stroke="#16294a" stroke-width="1.7" opacity="0.92"/>
  <line x1="1496" y1="938.4" x2="1496" y2="1196" stroke="#16294a" stroke-width="1.7" opacity="0.92"/>
  <line x1="1504" y1="884.5" x2="1504" y2="1196" stroke="#16294a" stroke-width="1.7" opacity="0.92"/>
  <line x1="1512" y1="849.6" x2="1512" y2="1196" stroke="#16294a" stroke-width="1.7" opacity="0.92"/>
  <line x1="1520" y1="826.8" x2="1520" y2="1196" stroke="#16294a" stroke-width="1.7" opacity="0.92"/>
  <line x1="1528" y1="809.7" x2="1528" y2="1196" stroke="#16294a" stroke-width="1.7" opacity="0.92"/>
  <line x1="1536" y1="796.1" x2="1536" y2="1196" stroke="#16294a" stroke-width="1.7" opacity="0.92"/>
  <line x1="1544" y1="785" x2="1544" y2="1196" stroke="#16294a" stroke-width="1.7" opacity="0.92"/>
  <line x1="1552" y1="776.1" x2="1552" y2="1196" stroke="#16294a" stroke-width="1.7" opacity="0.92"/>
  <line x1="1560" y1="768.9" x2="1560" y2="1196" stroke="#16294a" stroke-width="1.7" opacity="0.92"/>
  <line x1="1568" y1="763.2" x2="1568" y2="1196" stroke="#6e1423" stroke-width="3.2" opacity="1"/>
  <line x1="1576" y1="725.6" x2="1576" y2="1196" stroke="#16294a" stroke-width="1.7" opacity="0.92"/>
  <line x1="1584" y1="703.2" x2="1584" y2="1196" stroke="#16294a" stroke-width="1.7" opacity="0.92"/>
  <line x1="1592" y1="664" x2="1592" y2="1196" stroke="#16294a" stroke-width="1.7" opacity="0.92"/>
  <line x1="1600" y1="664" x2="1600" y2="1196" stroke="#16294a" stroke-width="1.7" opacity="0.92"/>
  <line x1="1608" y1="664" x2="1608" y2="1196" stroke="#16294a" stroke-width="1.7" opacity="0.92"/>
  <line x1="1616" y1="703.2" x2="1616" y2="1196" stroke="#16294a" stroke-width="1.7" opacity="0.92"/>
  <line x1="1624" y1="725.6" x2="1624" y2="1196" stroke="#16294a" stroke-width="1.7" opacity="0.92"/>
  <line x1="1632" y1="763.2" x2="1632" y2="1196" stroke="#16294a" stroke-width="1.7" opacity="0.92"/>
  <line x1="1640" y1="768.9" x2="1640" y2="1196" stroke="#16294a" stroke-width="1.7" opacity="0.92"/>
  <line x1="1648" y1="776.1" x2="1648" y2="1196" stroke="#16294a" stroke-width="1.7" opacity="0.92"/>
  <line x1="1656" y1="785" x2="1656" y2="1196" stroke="#16294a" stroke-width="1.7" opacity="0.92"/>
  <line x1="1664" y1="796.1" x2="1664" y2="1196" stroke="#16294a" stroke-width="1.7" opacity="0.92"/>
  <line x1="1672" y1="809.7" x2="1672" y2="1196" stroke="#6e1423" stroke-width="3.2" opacity="1"/>
  <line x1="1680" y1="826.8" x2="1680" y2="1196" stroke="#16294a" stroke-width="1.7" opacity="0.92"/>
  <line x1="1688" y1="849.6" x2="1688" y2="1196" stroke="#16294a" stroke-width="1.7" opacity="0.92"/>
  <line x1="1696" y1="884.5" x2="1696" y2="1196" stroke="#16294a" stroke-width="1.7" opacity="0.92"/>
  <line x1="1704" y1="938.4" x2="1704" y2="1196" stroke="#16294a" stroke-width="1.7" opacity="0.92"/>
  <line x1="1712" y1="938.4" x2="1712" y2="1196" stroke="#16294a" stroke-width="1.7" opacity="0.92"/>
  <line x1="1720" y1="972" x2="1720" y2="1196" stroke="#16294a" stroke-width="1.7" opacity="0.92"/>
  <line x1="1728" y1="972" x2="1728" y2="1196" stroke="#16294a" stroke-width="1.7" opacity="0.92"/>
  <line x1="1736" y1="1005.6" x2="1736" y2="1196" stroke="#16294a" stroke-width="1.7" opacity="0.92"/>
  <line x1="1744" y1="1005.6" x2="1744" y2="1196" stroke="#16294a" stroke-width="1.7" opacity="0.92"/>
  <line x1="1752" y1="1005.6" x2="1752" y2="1196" stroke="#16294a" stroke-width="1.7" opacity="0.92"/>
  <line x1="1760" y1="1005.6" x2="1760" y2="1196" stroke="#16294a" stroke-width="1.7" opacity="0.92"/>
  <line x1="1768" y1="1005.6" x2="1768" y2="1196" stroke="#16294a" stroke-width="1.7" opacity="0.92"/>
  <line x1="1776" y1="1005.6" x2="1776" y2="1196" stroke="#6e1423" stroke-width="3.2" opacity="1"/>
  <line x1="1784" y1="1005.6" x2="1784" y2="1196" stroke="#16294a" stroke-width="1.7" opacity="0.92"/>
  <line x1="1792" y1="1005.6" x2="1792" y2="1196" stroke="#16294a" stroke-width="1.7" opacity="0.92"/>
  <line x1="1800" y1="1005.6" x2="1800" y2="1196" stroke="#16294a" stroke-width="1.7" opacity="0.92"/>
  <line x1="1808" y1="1050.4" x2="1808" y2="1196" stroke="#16294a" stroke-width="1.7" opacity="0.92"/>
  <line x1="1816" y1="1050.4" x2="1816" y2="1196" stroke="#16294a" stroke-width="1.7" opacity="0.92"/>
  <line x1="1824" y1="1050.4" x2="1824" y2="1196" stroke="#16294a" stroke-width="1.7" opacity="0.92"/>
  <line x1="1832" y1="1050.4" x2="1832" y2="1196" stroke="#16294a" stroke-width="1.7" opacity="0.92"/>
  <line x1="1840" y1="1050.4" x2="1840" y2="1196" stroke="#16294a" stroke-width="1.7" opacity="0.92"/>
  <line x1="1848" y1="1050.4" x2="1848" y2="1196" stroke="#16294a" stroke-width="1.7" opacity="0.92"/>
  <line x1="1856" y1="1050.4" x2="1856" y2="1196" stroke="#16294a" stroke-width="1.7" opacity="0.92"/>
  <line x1="1864" y1="1050.4" x2="1864" y2="1196" stroke="#16294a" stroke-width="1.7" opacity="0.92"/>
  <line x1="1872" y1="1050.4" x2="1872" y2="1196" stroke="#16294a" stroke-width="1.7" opacity="0.92"/>
  <line x1="1880" y1="1028" x2="1880" y2="1196" stroke="#6e1423" stroke-width="3.2" opacity="1"/>
  <line x1="1888" y1="1028" x2="1888" y2="1196" stroke="#16294a" stroke-width="1.7" opacity="0.92"/>
  <line x1="1896" y1="1028" x2="1896" y2="1196" stroke="#16294a" stroke-width="1.7" opacity="0.92"/>
  <line x1="1904" y1="1028" x2="1904" y2="1196" stroke="#16294a" stroke-width="1.7" opacity="0.92"/>
  <line x1="1912" y1="1028" x2="1912" y2="1196" stroke="#16294a" stroke-width="1.7" opacity="0.92"/>
  <line x1="1920" y1="1028" x2="1920" y2="1196" stroke="#16294a" stroke-width="1.7" opacity="0.92"/>
  <line x1="1928" y1="1028" x2="1928" y2="1196" stroke="#16294a" stroke-width="1.7" opacity="0.92"/>
  <line x1="1936" y1="1028" x2="1936" y2="1196" stroke="#16294a" stroke-width="1.7" opacity="0.92"/>
  <line x1="1944" y1="1028" x2="1944" y2="1196" stroke="#16294a" stroke-width="1.7" opacity="0.92"/>
  <line x1="1952" y1="1028" x2="1952" y2="1196" stroke="#16294a" stroke-width="1.7" opacity="0.92"/>
  <line x1="1960" y1="1028" x2="1960" y2="1196" stroke="#16294a" stroke-width="1.7" opacity="0.92"/>
  <line x1="1968" y1="1028" x2="1968" y2="1196" stroke="#16294a" stroke-width="1.7" opacity="0.92"/>
  <line x1="1976" y1="1028" x2="1976" y2="1196" stroke="#16294a" stroke-width="1.7" opacity="0.92"/>
  <line x1="1984" y1="1050.4" x2="1984" y2="1196" stroke="#6e1423" stroke-width="3.2" opacity="1"/>
</svg>
